<?xml version="1.0" standalone="no"?>
<!DOCTYPE svg PUBLIC "-//W3C//DTD SVG 20010904//EN"
 "http://www.w3.org/TR/2001/REC-SVG-20010904/DTD/svg10.dtd">
<svg version="1.0" xmlns="http://www.w3.org/2000/svg"
 width="512.000000pt" height="512.000000pt" viewBox="0 0 512.000000 512.000000"
 preserveAspectRatio="xMidYMid meet">
<metadata>
Created by potrace 1.14, written by Peter Selinger 2001-2017
</metadata>
<g transform="translate(0.000000,512.000000) scale(0.100000,-0.100000)"
fill="#000000" stroke="none">
<path d="M510 5104 c-182 -48 -332 -203 -369 -382 -8 -38 -11 -661 -11 -2166
0 -2308 -3 -2164 57 -2286 38 -76 143 -179 218 -215 120 -57 53 -55 1608 -55
1327 0 1441 1 1467 17 44 26 50 51 50 223 l0 160 161 0 c175 0 206 8 228 57 8
17 11 302 11 937 l0 913 356 356 355 356 30 -32 c16 -18 41 -41 55 -53 l25
-21 -275 -275 c-211 -210 -277 -283 -282 -307 -16 -81 68 -147 139 -110 42 22
646 635 652 662 4 15 4 39 1 53 -4 16 -78 97 -180 200 l-173 173 48 50 c68 71
76 118 29 169 -47 50 -100 41 -170 -27 l-50 -49 -49 49 c-52 51 -85 65 -127
55 -16 -4 -98 -78 -203 -183 l-176 -176 -5 729 c-3 401 -9 737 -14 747 -24 49
31 47 -1430 47 l-1364 0 -18 53 c-50 152 -161 265 -311 319 -74 26 -207 32
-283 12z m255 -220 c38 -19 72 -46 97 -77 73 -93 68 60 68 -2029 l0 -1879 -37
26 c-66 44 -158 69 -258 69 -49 0 -101 -2 -115 -6 -52 -13 -109 -37 -149 -62
l-41 -26 0 1885 c0 1880 0 1885 21 1940 62 165 255 240 414 159z m2965 -1128
l0 -763 -638 -639 -638 -639 -107 -268 c-59 -147 -107 -276 -107 -288 0 -49
51 -99 100 -99 11 0 140 48 287 107 l268 107 414 413 c227 227 415 413 417
413 2 0 4 -337 4 -750 l0 -750 -1300 0 -1300 0 0 1960 0 1960 1300 0 1300 0 0
-764z m688 -516 c40 -38 72 -73 72 -79 0 -11 -439 -451 -450 -451 -14 0 -151
142 -147 153 5 16 431 444 443 446 6 0 43 -30 82 -69z m-596 -605 l76 -75
-557 -557 -558 -558 -119 -48 c-65 -26 -124 -47 -130 -47 -6 0 12 57 40 126
l52 127 549 552 c303 304 555 553 561 554 6 0 45 -33 86 -74z m-3059 -1869
c93 -45 167 -159 167 -257 0 -41 18 -73 50 -92 26 -16 124 -17 1189 -17 l1161
0 0 -100 0 -100 -1387 2 c-1387 3 -1388 3 -1433 24 -105 49 -172 148 -176 263
-9 227 224 378 429 277z"/>
<path d="M1374 4302 c-12 -10 -26 -27 -33 -39 -16 -31 -16 -1052 1 -1088 26
-57 -21 -55 1088 -55 936 0 1024 1 1050 17 16 9 33 27 39 40 8 16 11 191 11
543 0 352 -3 527 -11 543 -6 13 -23 31 -39 40 -26 16 -115 17 -1057 17 -966
-1 -1029 -2 -1049 -18z m1956 -582 l0 -400 -900 0 -900 0 0 400 0 400 900 0
900 0 0 -400z"/>
<path d="M1784 2909 c-25 -13 -54 -60 -54 -89 0 -33 26 -75 55 -88 19 -9 198
-12 695 -12 497 0 676 3 695 12 29 13 55 55 55 88 0 33 -26 75 -55 88 -34 16
-1359 16 -1391 1z"/>
<path d="M1368 2495 c-47 -43 -49 -98 -7 -146 l21 -24 731 -3 c500 -2 740 1
758 8 29 12 59 58 59 90 0 33 -26 75 -55 88 -19 9 -211 12 -753 12 l-727 0
-27 -25z"/>
<path d="M1381 2106 c-67 -37 -65 -143 4 -174 37 -17 1053 -17 1090 0 29 13
55 55 55 88 0 31 -29 76 -57 89 -38 17 -1061 14 -1092 -3z"/>
<path d="M1378 1703 c-64 -40 -63 -128 2 -166 25 -15 71 -17 400 -17 301 0
376 3 399 14 70 37 64 149 -10 175 -21 7 -155 11 -398 11 -323 -1 -369 -2
-393 -17z"/>
<path d="M1384 1309 c-25 -13 -54 -59 -54 -88 0 -33 20 -67 50 -84 25 -15 68
-17 349 -17 209 0 328 4 344 11 28 13 57 58 57 89 0 36 -28 77 -61 89 -41 14
-655 14 -685 0z"/>
</g>
</svg>
